# Blender v2.77 (sub 0) OBJ File: ''
# www.blender.org
o Sphere001
v 0.001477 0.000000 2.186214
v 0.025140 0.009728 2.084782
v 0.001654 0.025421 2.084741
v -0.021832 0.009728 2.084700
v -0.016321 -0.017975 2.084709
v 0.011382 -0.023486 2.084758
v 0.026587 -0.004959 2.084784
v 0.054398 0.076611 1.194090
v -0.047981 0.076611 1.193911
v 0.079819 -0.051189 1.194134
v 0.093577 -0.017975 1.194158
v 0.115509 0.046069 0.575663
v 0.027774 0.118072 0.575510
v -0.062594 0.100097 0.575352
v -0.113784 -0.023486 0.575262
v -0.019198 -0.118072 0.575428
v 0.104385 -0.066882 0.575643
v 0.108057 0.103445 0.197913
v -0.023829 0.143453 0.197683
v 0.148064 -0.028441 0.197983
v 0.170625 0.033113 -0.109380
v 0.124398 0.119599 -0.109461
v 0.037911 0.165827 -0.109612
v -0.059682 0.156215 -0.109782
v -0.135488 0.094002 -0.109914
v -0.163955 0.000159 -0.109964
v -0.135488 -0.093684 -0.109914
v -0.059682 -0.155896 -0.109782
v 0.037912 -0.165508 -0.109612
v 0.124398 -0.119280 -0.109461
v 0.170625 -0.032794 -0.109380
v 0.166546 0.032252 -0.251561
v 0.141983 0.091551 -0.251604
v 0.096598 0.136937 -0.251683
v 0.068158 0.152138 -0.251733
v 0.005206 0.164660 -0.251843
v -0.086185 0.136937 -0.252002
v -0.111113 0.116479 -0.252046
v -0.146772 0.063111 -0.252108
v -0.159294 0.000159 -0.252130
v -0.146772 -0.062792 -0.252108
v -0.111113 -0.116160 -0.252046
v -0.026886 -0.161180 -0.251899
v 0.068158 -0.151819 -0.251733
v 0.141983 -0.091232 -0.251604
v 0.166546 -0.031933 -0.251561
v 0.047039 0.099561 -0.529285
v -0.035347 0.099561 -0.529429
v -0.093206 0.041141 -0.528353
v -0.093603 -0.041081 -0.529530
v -0.035347 -0.099337 -0.529429
v 0.030186 0.009728 -0.806699
v 0.006700 0.025421 -0.806740
v -0.018232 0.004959 -0.806783
v -0.003028 -0.023486 -0.806757
v 0.024676 -0.017975 -0.806708
v 0.006776 0.000000 -0.850370
v 0.001477 0.000000 2.186214
v 0.001654 0.025421 2.084741
v 0.001477 0.000000 2.186214
v -0.021832 0.009728 2.084700
v 0.001477 0.000000 2.186214
v -0.016321 -0.017975 2.084709
v 0.001477 0.000000 2.186214
v 0.011382 -0.023486 2.084758
v 0.001477 0.000000 2.186214
v 0.026587 -0.004959 2.084784
v 0.025140 0.009728 2.084782
v 0.025140 0.009728 2.084782
v 0.025140 0.009728 2.084782
v 0.054398 0.076611 1.194090
v 0.001654 0.025421 2.084741
v 0.001654 0.025421 2.084741
v 0.054398 0.076611 1.194090
v 0.001654 0.025421 2.084741
v -0.047981 0.076611 1.193911
v -0.021832 0.009728 2.084700
v -0.021832 0.009728 2.084700
v -0.047981 0.076611 1.193911
v -0.021832 0.009728 2.084700
v -0.113784 -0.023486 0.575262
v -0.016321 -0.017975 2.084709
v -0.016321 -0.017975 2.084709
v -0.113784 -0.023486 0.575262
v -0.016321 -0.017975 2.084709
v -0.019198 -0.118072 0.575428
v 0.011382 -0.023486 2.084758
v 0.011382 -0.023486 2.084758
v -0.019198 -0.118072 0.575428
v 0.011382 -0.023486 2.084758
v 0.079819 -0.051189 1.194134
v 0.026587 -0.004959 2.084784
v 0.026587 -0.004959 2.084784
v 0.079819 -0.051189 1.194134
v 0.093577 -0.017975 1.194158
v 0.026587 -0.004959 2.084784
v 0.093577 -0.017975 1.194158
v 0.025140 0.009728 2.084782
v 0.093577 -0.017975 1.194158
v 0.054398 0.076611 1.194090
v 0.054398 0.076611 1.194090
v 0.115509 0.046069 0.575663
v 0.054398 0.076611 1.194090
v 0.027774 0.118072 0.575510
v -0.047981 0.076611 1.193911
v -0.047981 0.076611 1.193911
v 0.027774 0.118072 0.575510
v -0.047981 0.076611 1.193911
v -0.062594 0.100097 0.575352
v -0.113784 -0.023486 0.575262
v -0.019198 -0.118072 0.575428
v 0.079819 -0.051189 1.194134
v 0.079819 -0.051189 1.194134
v 0.104385 -0.066882 0.575643
v 0.093577 -0.017975 1.194158
v 0.093577 -0.017975 1.194158
v 0.104385 -0.066882 0.575643
v 0.115509 0.046069 0.575663
v 0.115509 0.046069 0.575663
v 0.115509 0.046069 0.575663
v 0.108057 0.103445 0.197913
v 0.027774 0.118072 0.575510
v 0.108057 0.103445 0.197913
v 0.027774 0.118072 0.575510
v -0.023829 0.143453 0.197683
v 0.104385 -0.066882 0.575643
v 0.148064 -0.028441 0.197983
v 0.115509 0.046069 0.575663
v 0.108057 0.103445 0.197913
v 0.124398 0.119599 -0.109461
v 0.108057 0.103445 0.197913
v 0.037911 0.165827 -0.109612
v -0.023829 0.143453 0.197683
v 0.037911 0.165827 -0.109612
v -0.023829 0.143453 0.197683
v -0.059682 0.156215 -0.109782
v -0.062594 0.100097 0.575352
v -0.062594 0.100097 0.575352
v -0.059682 0.156215 -0.109782
v -0.062594 0.100097 0.575352
v -0.135488 0.094002 -0.109914
v -0.113784 -0.023486 0.575262
v -0.113784 -0.023486 0.575262
v -0.135488 0.094002 -0.109914
v -0.113784 -0.023486 0.575262
v -0.163955 0.000159 -0.109964
v -0.113784 -0.023486 0.575262
v -0.135488 -0.093684 -0.109914
v -0.019198 -0.118072 0.575428
v -0.019198 -0.118072 0.575428
v -0.135488 -0.093684 -0.109914
v -0.019198 -0.118072 0.575428
v -0.059682 -0.155896 -0.109782
v -0.019198 -0.118072 0.575428
v 0.037912 -0.165508 -0.109612
v 0.104385 -0.066882 0.575643
v 0.104385 -0.066882 0.575643
v 0.037912 -0.165508 -0.109612
v 0.104385 -0.066882 0.575643
v 0.124398 -0.119280 -0.109461
v 0.104385 -0.066882 0.575643
v 0.170625 -0.032794 -0.109380
v 0.148064 -0.028441 0.197983
v 0.148064 -0.028441 0.197983
v 0.170625 -0.032794 -0.109380
v 0.170625 0.033113 -0.109380
v 0.170625 0.033113 -0.109380
v 0.141983 0.091551 -0.251604
v 0.141983 0.091551 -0.251604
v 0.124398 0.119599 -0.109461
v 0.096598 0.136937 -0.251683
v 0.124398 0.119599 -0.109461
v 0.037911 0.165827 -0.109612
v 0.005206 0.164660 -0.251843
v 0.005206 0.164660 -0.251843
v -0.059682 0.156215 -0.109782
v -0.086185 0.136937 -0.252002
v -0.059682 0.156215 -0.109782
v -0.135488 0.094002 -0.109914
v -0.146772 0.063111 -0.252108
v -0.146772 0.063111 -0.252108
v -0.163955 0.000159 -0.109964
v -0.163955 0.000159 -0.109964
v -0.146772 -0.062792 -0.252108
v -0.146772 -0.062792 -0.252108
v -0.135488 -0.093684 -0.109914
v -0.111113 -0.116160 -0.252046
v -0.111113 -0.116160 -0.252046
v -0.059682 -0.155896 -0.109782
v -0.026886 -0.161180 -0.251899
v -0.026886 -0.161180 -0.251899
v 0.037912 -0.165508 -0.109612
v 0.068158 -0.151819 -0.251733
v 0.068158 -0.151819 -0.251733
v 0.124398 -0.119280 -0.109461
v 0.141983 -0.091232 -0.251604
v 0.141983 -0.091232 -0.251604
v 0.170625 -0.032794 -0.109380
v 0.166546 0.032252 -0.251561
v 0.170625 -0.032794 -0.109380
v 0.166546 0.032252 -0.251561
v 0.170625 0.033113 -0.109380
v 0.141983 -0.091232 -0.251604
v 0.166546 -0.031933 -0.251561
v 0.166546 -0.031933 -0.251561
v 0.166546 0.032252 -0.251561
v 0.166546 0.032252 -0.251561
v 0.141983 0.091551 -0.251604
v 0.141983 0.091551 -0.251604
v 0.141983 0.091551 -0.251604
v 0.047039 0.099561 -0.529285
v 0.096598 0.136937 -0.251683
v 0.096598 0.136937 -0.251683
v 0.047039 0.099561 -0.529285
v 0.068158 0.152138 -0.251733
v 0.068158 0.152138 -0.251733
v 0.047039 0.099561 -0.529285
v 0.068158 0.152138 -0.251733
v 0.005206 0.164660 -0.251843
v 0.005206 0.164660 -0.251843
v -0.035347 0.099561 -0.529429
v -0.086185 0.136937 -0.252002
v -0.086185 0.136937 -0.252002
v -0.035347 0.099561 -0.529429
v -0.086185 0.136937 -0.252002
v -0.093206 0.041141 -0.528353
v -0.111113 0.116479 -0.252046
v -0.111113 0.116479 -0.252046
v -0.093206 0.041141 -0.528353
v -0.146772 0.063111 -0.252108
v -0.146772 0.063111 -0.252108
v -0.093206 0.041141 -0.528353
v -0.146772 0.063111 -0.252108
v -0.159294 0.000159 -0.252130
v -0.159294 0.000159 -0.252130
v -0.093603 -0.041081 -0.529530
v -0.146772 -0.062792 -0.252108
v -0.146772 -0.062792 -0.252108
v -0.093603 -0.041081 -0.529530
v -0.146772 -0.062792 -0.252108
v -0.111113 -0.116160 -0.252046
v -0.111113 -0.116160 -0.252046
v -0.035347 -0.099337 -0.529429
v -0.026886 -0.161180 -0.251899
v -0.026886 -0.161180 -0.251899
v -0.035347 -0.099337 -0.529429
v 0.068158 -0.151819 -0.251733
v 0.068158 -0.151819 -0.251733
v 0.024676 -0.017975 -0.806708
v 0.141983 -0.091232 -0.251604
v 0.030186 0.009728 -0.806699
v 0.166546 0.032252 -0.251561
v 0.030186 0.009728 -0.806699
v 0.047039 0.099561 -0.529285
v 0.047039 0.099561 -0.529285
v 0.006700 0.025421 -0.806740
v -0.035347 0.099561 -0.529429
v -0.035347 0.099561 -0.529429
v 0.006700 0.025421 -0.806740
v -0.035347 0.099561 -0.529429
v -0.018232 0.004959 -0.806783
v -0.093206 0.041141 -0.528353
v -0.093206 0.041141 -0.528353
v -0.018232 0.004959 -0.806783
v -0.093603 -0.041081 -0.529530
v -0.093603 -0.041081 -0.529530
v -0.018232 0.004959 -0.806783
v -0.093603 -0.041081 -0.529530
v -0.003028 -0.023486 -0.806757
v -0.035347 -0.099337 -0.529429
v -0.035347 -0.099337 -0.529429
v -0.003028 -0.023486 -0.806757
v 0.024676 -0.017975 -0.806708
v -0.035347 -0.099337 -0.529429
v 0.024676 -0.017975 -0.806708
v 0.068158 -0.151819 -0.251733
v 0.030186 0.009728 -0.806699
v 0.006776 0.000000 -0.850370
v 0.006700 0.025421 -0.806740
v 0.006776 0.000000 -0.850370
v -0.018232 0.004959 -0.806783
v 0.006776 0.000000 -0.850370
v 0.024676 -0.017975 -0.806708
v -0.003028 -0.023486 -0.806757
v 0.006776 0.000000 -0.850370
v 0.030186 0.009728 -0.806699
v 0.024676 -0.017975 -0.806708
vt 0.1250 1.0000
vt 0.1250 0.9375
vt 0.1562 0.9375
vt 0.3125 1.0000
vt 0.3125 0.9375
vt 0.3437 0.9375
vt 0.5000 1.0000
vt 0.5000 0.9375
vt 0.5313 0.9375
vt 0.6875 1.0000
vt 0.6875 0.9375
vt 0.7188 0.9375
vt 0.8750 1.0000
vt 0.8750 0.9375
vt 0.9063 0.9375
vt 0.9688 1.0000
vt 0.9688 0.9375
vt 1.0000 0.9375
vt 0.0312 0.8125
vt 0.0312 0.7500
vt 0.0625 0.7500
vt 0.1250 0.8125
vt 0.1562 0.7500
vt 0.1562 0.8125
vt 0.2187 0.8125
vt 0.2187 0.7500
vt 0.2500 0.7500
vt 0.3125 0.8125
vt 0.3437 0.7500
vt 0.3437 0.8125
vt 0.4062 0.8125
vt 0.4062 0.7500
vt 0.4375 0.7500
vt 0.5000 0.8125
vt 0.5313 0.7500
vt 0.5313 0.8125
vt 0.5938 0.8125
vt 0.5938 0.7500
vt 0.6250 0.7500
vt 0.6875 0.8125
vt 0.7188 0.7500
vt 0.7188 0.8125
vt 0.7813 0.8125
vt 0.7813 0.7500
vt 0.8125 0.7500
vt 0.8750 0.8125
vt 0.9063 0.7500
vt 0.9063 0.8125
vt 0.9375 0.8125
vt 0.9375 0.7500
vt 0.9688 0.7500
vt 0.9688 0.8125
vt 1.0000 0.7500
vt 1.0000 0.8125
vt 0.0312 0.6875
vt 0.0625 0.6250
vt 0.0625 0.6875
vt 0.1250 0.6875
vt 0.1250 0.6250
vt 0.1562 0.6250
vt 0.2187 0.6875
vt 0.2500 0.6250
vt 0.2500 0.6875
vt 0.2500 0.6875
vt 0.2500 0.6250
vt 0.2812 0.6250
vt 0.4062 0.6875
vt 0.4062 0.6250
vt 0.4375 0.6250
vt 0.7813 0.6875
vt 0.8125 0.6250
vt 0.8125 0.6875
vt 0.9375 0.6875
vt 0.9688 0.6250
vt 0.9688 0.6875
vt 0.9688 0.6875
vt 0.9688 0.6250
vt 1.0000 0.6250
vt 0.0312 0.6250
vt 0.0312 0.5625
vt 0.0625 0.5625
vt 0.1250 0.6250
vt 0.1562 0.5625
vt 0.1875 0.6250
vt 0.1875 0.5625
vt 0.2187 0.5625
vt 0.2500 0.6250
vt 0.2812 0.5625
vt 0.9688 0.6250
vt 1.0000 0.5625
vt 1.0000 0.6250
vt 0.0625 0.5000
vt 0.0938 0.5000
vt 0.1562 0.5625
vt 0.1562 0.5000
vt 0.1875 0.5000
vt 0.1875 0.5625
vt 0.2187 0.5000
vt 0.2500 0.5625
vt 0.2500 0.5000
vt 0.2812 0.5000
vt 0.3125 0.5625
vt 0.3437 0.5000
vt 0.3437 0.5625
vt 0.3437 0.5625
vt 0.3437 0.5000
vt 0.3750 0.5000
vt 0.4062 0.5625
vt 0.4375 0.5000
vt 0.4375 0.5625
vt 0.4375 0.5625
vt 0.4375 0.5000
vt 0.4688 0.5000
vt 0.5313 0.5625
vt 0.5313 0.5000
vt 0.5625 0.5000
vt 0.5938 0.5625
vt 0.6250 0.5000
vt 0.6250 0.5625
vt 0.6250 0.5625
vt 0.6250 0.5000
vt 0.6563 0.5000
vt 0.7188 0.5625
vt 0.7188 0.5000
vt 0.7500 0.5000
vt 0.7813 0.5625
vt 0.8125 0.5000
vt 0.8125 0.5625
vt 0.8125 0.5625
vt 0.8125 0.5000
vt 0.8438 0.5000
vt 0.9063 0.5625
vt 0.9063 0.5000
vt 0.9375 0.5000
vt 0.9375 0.5625
vt 0.9688 0.5000
vt 0.9688 0.5625
vt 0.9688 0.5625
vt 0.9688 0.5000
vt 1.0000 0.5000
vt 0.0312 0.5000
vt 0.0312 0.4375
vt 0.0625 0.4375
vt 0.0938 0.4375
vt 0.0938 0.4375
vt 0.1250 0.4375
vt 0.1562 0.5000
vt 0.1562 0.4375
vt 0.1875 0.4375
vt 0.1562 0.5000
vt 0.2187 0.4375
vt 0.2500 0.5000
vt 0.2812 0.4375
vt 0.2812 0.4375
vt 0.3125 0.4375
vt 0.3437 0.5000
vt 0.3437 0.4375
vt 0.3750 0.4375
vt 0.3437 0.5000
vt 0.4062 0.4375
vt 0.4375 0.5000
vt 0.4688 0.4375
vt 0.4688 0.4375
vt 0.5000 0.4375
vt 0.5000 0.5000
vt 0.5313 0.4375
vt 0.5313 0.5000
vt 0.5625 0.4375
vt 0.5625 0.4375
vt 0.5938 0.4375
vt 0.6250 0.5000
vt 0.6563 0.4375
vt 0.6563 0.4375
vt 0.6875 0.4375
vt 0.7188 0.5000
vt 0.7500 0.4375
vt 0.7500 0.4375
vt 0.7813 0.4375
vt 0.8125 0.5000
vt 0.8438 0.4375
vt 0.8438 0.4375
vt 0.8750 0.4375
vt 0.9063 0.5000
vt 0.9375 0.4375
vt 0.9375 0.4375
vt 0.9688 0.4375
vt 0.9688 0.5000
vt 1.0000 0.4375
vt 0.9688 0.5000
vt 1.0000 0.4375
vt 1.0000 0.5000
vt 0.9375 0.3750
vt 0.9688 0.3125
vt 0.9688 0.3750
vt 0.9688 0.3750
vt 1.0000 0.3125
vt 0.0625 0.3125
vt 0.0938 0.2500
vt 0.0938 0.3125
vt 0.0938 0.3125
vt 0.1250 0.2500
vt 0.1250 0.3125
vt 0.1562 0.2500
vt 0.1562 0.3125
vt 0.1875 0.3125
vt 0.2187 0.2500
vt 0.2187 0.3125
vt 0.2187 0.3125
vt 0.2187 0.2500
vt 0.2500 0.2500
vt 0.2187 0.3125
vt 0.2500 0.3125
vt 0.3125 0.3125
vt 0.3437 0.2500
vt 0.3437 0.3125
vt 0.3437 0.3125
vt 0.3437 0.2500
vt 0.3750 0.2500
vt 0.3750 0.3125
vt 0.4062 0.2500
vt 0.4062 0.3125
vt 0.4062 0.3125
vt 0.4375 0.2500
vt 0.4375 0.3125
vt 0.4688 0.3125
vt 0.4688 0.2500
vt 0.5000 0.2500
vt 0.4688 0.3125
vt 0.5000 0.3125
vt 0.5313 0.3125
vt 0.5625 0.2500
vt 0.5625 0.3125
vt 0.5938 0.3125
vt 0.5938 0.2500
vt 0.6250 0.2500
vt 0.5938 0.3125
vt 0.6250 0.3125
vt 0.6875 0.3125
vt 0.7188 0.2500
vt 0.7188 0.3125
vt 0.7188 0.3125
vt 0.7188 0.2500
vt 0.7500 0.2500
vt 0.8750 0.3125
vt 0.9063 0.2500
vt 0.9063 0.3125
vt 1.0000 0.2500
vt 1.0000 0.3125
vt 0.1250 0.1250
vt 0.1562 0.0625
vt 0.1562 0.1250
vt 0.2500 0.1250
vt 0.2812 0.0625
vt 0.2812 0.1250
vt 0.3125 0.1250
vt 0.3125 0.0625
vt 0.3437 0.0625
vt 0.3750 0.1250
vt 0.4062 0.0625
vt 0.4062 0.1250
vt 0.5000 0.1250
vt 0.5313 0.0625
vt 0.5313 0.1250
vt 0.5313 0.1250
vt 0.5313 0.0625
vt 0.5625 0.0625
vt 0.6250 0.1250
vt 0.6563 0.0625
vt 0.6563 0.1250
vt 0.7500 0.1250
vt 0.7500 0.0625
vt 0.7813 0.0625
vt 0.7500 0.1250
vt 0.7813 0.0625
vt 0.7813 0.1250
vt 0.1250 -0.0000
vt 0.1250 0.0625
vt 0.3125 -0.0000
vt 0.3125 0.0625
vt 0.5313 -0.0000
vt 0.5313 0.0625
vt 0.7500 -0.0000
vt 0.7813 0.0625
vt 0.7500 0.0625
vt 0.9688 -0.0000
vt 1.0000 0.0625
vt 0.9688 0.0625
vn 0.5435 0.8140 0.2049
vn -0.5443 0.8140 0.2030
vn -0.9605 -0.1910 0.2022
vn -0.1913 -0.9602 0.2036
vn 0.7544 -0.6195 0.2171
vn 0.9674 0.0953 0.2348
vn 0.9223 0.3821 0.0590
vn 0.5537 0.8288 0.0804
vn -0.0001 0.9984 0.0574
vn -0.5540 0.8288 0.0785
vn -0.9498 0.3088 0.0511
vn -0.9788 -0.1947 0.0639
vn -0.7063 -0.7062 0.0482
vn -0.1948 -0.9787 0.0653
vn 0.3087 -0.9497 0.0533
vn 0.7705 -0.6325 0.0789
vn 0.9213 -0.3817 0.0749
vn 0.9925 0.0978 0.0732
vn 0.9214 0.3817 0.0722
vn 0.6342 0.7728 0.0245
vn -0.0001 0.9978 0.0669
vn -0.1950 0.9799 0.0418
vn -0.9233 0.3824 0.0363
vn 0.3823 -0.9232 0.0386
vn 0.9229 -0.3823 0.0464
vn 0.9949 -0.0980 0.0251
vn 0.9566 0.2902 0.0252
vn 0.6308 0.7689 0.1043
vn 0.2902 0.9567 0.0246
vn -0.1944 0.9766 0.0922
vn 0.9897 -0.0975 0.1045
vn 0.9491 0.2880 0.1273
vn 0.8796 0.4702 0.0715
vn 0.4701 0.8797 0.0712
vn 0.2877 0.9493 0.1269
vn -0.0980 0.9938 0.0527
vn -0.3161 0.9457 0.0761
vn -0.6333 0.7715 0.0605
vn -0.9198 0.3809 0.0945
vn -0.9539 0.2893 0.0798
vn -0.9552 -0.2897 0.0599
vn -0.7040 -0.7039 0.0944
vn -0.6324 -0.7705 0.0799
vn -0.0979 -0.9933 0.0606
vn 0.3808 -0.9197 0.0954
vn 0.4697 -0.8791 0.0810
vn 0.8802 -0.4705 0.0617
vn 0.9370 -0.3415 0.0736
vn 0.9973 0.0000 0.0732
vn 0.9235 0.3825 -0.0288
vn 0.8818 0.4713 0.0161
vn 0.7062 0.7061 -0.0520
vn 0.4713 0.8818 0.0154
vn 0.1949 0.9794 -0.0529
vn -0.0980 0.9951 0.0144
vn -0.2893 0.9543 -0.0754
vn -0.6344 0.7729 0.0134
vn -0.8302 0.5548 -0.0546
vn -0.9569 0.2903 0.0129
vn -0.9803 0.1950 -0.0321
vn -0.9803 -0.1950 -0.0321
vn -0.9569 -0.2903 0.0129
vn -0.8302 -0.5548 -0.0546
vn -0.6343 -0.7729 0.0134
vn -0.4699 -0.8794 -0.0757
vn -0.0980 -0.9951 0.0144
vn 0.0979 -0.9924 -0.0748
vn 0.4713 -0.8818 0.0154
vn 0.6327 -0.7708 -0.0738
vn 0.8818 -0.4713 0.0161
vn 0.9235 -0.3825 -0.0288
vn 0.9996 0.0000 -0.0287
vn 0.8973 -0.3715 -0.2386
vn 0.9689 0.0000 -0.2476
vn 0.8979 0.3718 -0.2356
vn 0.7587 0.6049 -0.2420
vn 0.6906 0.6902 -0.2162
vn 0.4623 0.8642 -0.1989
vn 0.0003 0.9825 -0.1861
vn 0.1893 0.9495 -0.2503
vn -0.2853 0.9415 -0.1791
vn -0.6952 0.6845 -0.2196
vn -0.6149 0.7498 -0.2443
vn -0.8144 0.5444 -0.2012
vn -0.9816 0.0075 -0.1909
vn -0.9489 0.1888 -0.2528
vn -0.9611 -0.1912 -0.1992
vn -0.6944 -0.6947 -0.1875
vn -0.8044 -0.5378 -0.2523
vn -0.4635 -0.8678 -0.1792
vn 0.0960 -0.9709 -0.2193
vn 0.6177 -0.7521 -0.2298
vn 0.9552 -0.1899 -0.2269
vn 0.5321 0.7955 -0.2899
vn 0.0005 0.9661 -0.2582
vn -0.6069 0.7401 -0.2899
vn -0.6861 0.6745 -0.2724
vn -0.9653 0.0084 -0.2610
vn -0.8403 -0.4494 -0.3031
vn -0.6814 -0.6819 -0.2659
vn 0.1899 -0.9524 -0.2384
vn 0.1693 -0.9550 -0.2436
vn 0.5007 0.7483 -0.4351
vn -0.5777 0.7048 -0.4117
vn -0.8034 -0.4298 -0.4121
vn 0.1763 -0.8827 -0.4357
vn 0.8834 -0.1756 -0.4344
s off
f 1/1/1 2/2/1 3/3/1
f 58/4/2 59/5/2 4/6/2
f 60/7/3 61/8/3 5/9/3
f 62/10/4 63/11/4 6/12/4
f 64/13/5 65/14/5 7/15/5
f 66/16/6 67/17/6 68/18/6
f 69/19/7 11/20/7 8/21/7
f 70/22/8 71/23/8 72/24/8
f 73/25/9 74/26/9 9/27/9
f 75/28/10 76/29/10 77/30/10
f 78/31/11 79/32/11 15/33/11
f 80/34/12 81/35/12 82/36/12
f 83/37/13 84/38/13 16/39/13
f 85/40/14 86/41/14 87/42/14
f 88/43/15 89/44/15 10/45/15
f 90/46/16 91/47/16 92/48/16
f 93/49/17 94/50/17 95/51/17
f 96/52/18 97/53/18 98/54/18
f 99/55/19 12/56/19 100/57/19
f 101/58/20 102/59/20 13/60/20
f 103/61/21 104/62/21 105/63/21
f 106/64/22 107/65/22 14/66/22
f 108/67/23 109/68/23 110/69/23
f 111/70/24 17/71/24 112/72/24
f 113/73/25 114/74/25 115/75/25
f 116/76/26 117/77/26 118/78/26
f 119/79/27 20/80/27 18/81/27
f 120/82/28 121/83/28 13/60/28
f 122/84/29 123/85/29 19/86/29
f 124/87/30 125/88/30 14/66/30
f 126/89/31 127/90/31 128/91/31
f 20/80/32 21/92/32 18/81/32
f 18/81/33 21/92/33 22/93/33
f 129/94/34 130/95/34 23/96/34
f 131/97/35 132/98/35 19/86/35
f 133/99/36 134/100/36 24/101/36
f 135/102/37 136/103/37 137/104/37
f 138/105/38 139/106/38 25/107/38
f 140/108/39 141/109/39 142/110/39
f 143/111/40 144/112/40 26/113/40
f 145/114/41 146/115/41 27/116/41
f 147/117/42 148/118/42 149/119/42
f 150/120/43 151/121/43 28/122/43
f 152/123/44 153/124/44 29/125/44
f 154/126/45 155/127/45 156/128/45
f 157/129/46 158/130/46 30/131/46
f 159/132/47 160/133/47 31/134/47
f 161/135/48 162/136/48 163/137/48
f 164/138/49 165/139/49 166/140/49
f 167/141/50 32/142/50 33/143/50
f 21/92/51 168/144/51 22/93/51
f 22/93/52 169/145/52 34/146/52
f 170/147/53 171/148/53 35/149/53
f 172/150/53 35/149/53 23/96/53
f 23/96/54 35/149/54 36/151/54
f 173/152/55 174/153/55 24/101/55
f 24/101/56 175/154/56 37/155/56
f 176/156/57 177/157/57 38/158/57
f 178/159/57 38/158/57 25/107/57
f 25/107/58 38/158/58 39/160/58
f 179/161/59 180/162/59 26/113/59
f 26/113/60 181/163/60 40/164/60
f 182/165/61 40/164/61 41/166/61
f 183/167/62 184/168/62 27/116/62
f 27/116/63 185/169/63 42/170/63
f 186/171/64 187/172/64 28/122/64
f 28/122/65 188/173/65 43/174/65
f 189/175/66 190/176/66 29/125/66
f 29/125/67 191/177/67 44/178/67
f 192/179/68 193/180/68 30/131/68
f 30/131/69 194/181/69 45/182/69
f 195/183/70 196/184/70 31/134/70
f 31/134/71 197/185/71 46/186/71
f 198/187/72 46/186/72 199/188/72
f 200/189/72 201/190/72 202/191/72
f 203/192/73 56/193/73 204/194/73
f 205/195/74 56/193/74 206/196/74
f 207/197/75 52/198/75 208/199/75
f 209/200/76 52/198/76 47/201/76
f 210/202/77 211/203/77 212/204/77
f 213/205/78 214/206/78 215/207/78
f 216/208/79 217/209/79 48/210/79
f 218/211/80 48/210/80 219/212/80
f 220/213/81 221/214/81 222/215/81
f 223/216/82 224/217/82 49/218/82
f 225/219/83 226/220/83 227/221/83
f 228/222/84 229/223/84 230/224/84
f 231/225/85 232/226/85 50/227/85
f 233/228/86 50/227/86 234/229/86
f 235/230/87 236/231/87 237/232/87
f 238/233/88 239/234/88 51/235/88
f 240/236/89 51/235/89 241/237/89
f 242/238/90 243/239/90 244/240/90
f 245/241/91 246/242/91 247/243/91
f 248/244/92 249/245/92 250/246/92
f 56/193/93 251/247/93 252/248/93
f 253/249/94 53/250/94 254/251/94
f 255/252/95 256/253/95 257/254/95
f 258/255/96 259/256/96 54/257/96
f 260/258/97 261/259/97 262/260/97
f 263/261/98 264/262/98 265/263/98
f 266/264/99 267/265/99 55/266/99
f 268/267/100 269/268/100 270/269/100
f 271/270/101 272/271/101 273/272/101
f 274/273/102 275/274/102 276/275/102
f 57/276/103 53/250/103 277/277/103
f 278/278/104 54/257/104 279/279/104
f 280/280/105 55/266/105 281/281/105
f 282/282/106 283/283/106 284/284/106
f 285/285/107 286/286/107 287/287/107
